<svg xmlns="http://www.w3.org/2000/svg" version="1.1" xmlns:xlink="http://www.w3.org/1999/xlink" xmlns:svgjs="http://svgjs.com/svgjs" width="130" height="130" preserveAspectRatio="none" viewBox="0 0 130 130"><g mask="url(&quot;#SvgjsMask1008&quot;)" fill="none"><rect width="130" height="130" x="0" y="0" fill="#0e2a47"></rect><path d="M65 160.47C91.18 160.1 117.87 154.9 136.67 136.67 155.71 118.21 162.78 91.52 163.5 65 164.25 37.63 159.11 9.58 140.62-10.62 121.41-31.59 93.36-45.13 65-42.54 38.38-40.13 20.46-17.31 2.03 2.03-15.72 20.66-35.4 39.33-37.41 65-39.55 92.34-28.7 119.98-8.68 138.68 10.8 156.83 38.38 160.85 65 160.47" fill="#1c538e"></path><path d="M65 126.78C81.94 126.53 99.21 123.17 111.38 111.38 123.7 99.43 128.27 82.16 128.73 65 129.22 47.29 125.9 29.14 113.93 16.07 101.5 2.5 83.35-6.26 65-4.59 47.77-3.02 36.18 11.74 24.26 24.26 12.77 36.31 0.03 48.39-1.26 65-2.65 82.69 4.37 100.57 17.33 112.67 29.93 124.42 47.77 127.02 65 126.78" fill="#2774c6"></path><path d="M65 93.08C72.7 92.97 80.55 91.44 86.08 86.08 91.68 80.65 93.76 72.8 93.97 65 94.19 56.95 92.68 48.7 87.24 42.76 81.59 36.59 73.34 32.61 65 33.37 57.17 34.08 51.9 40.79 46.48 46.48 41.26 51.96 35.47 57.45 34.88 65 34.25 73.04 37.44 81.17 43.33 86.67 49.06 92.01 57.17 93.19 65 93.08" fill="#488fdb"></path></g><defs><mask id="SvgjsMask1008"><rect width="130" height="130" fill="#ffffff"></rect></mask></defs></svg>